# xmcd
#
# Track frame offsets: 
#        150
#        15549
#        36499
#        49230
#        64883
#        91827
#
# Disc length: 1660 seconds
#
# Revision: 0
# Processed by: cddbd v1.5.2PL0 Copyright (c) Steve Scherf et al.
# Submitted via: ExactAudioCopy v1.0b1
#
DISCID=4a067a06
DTITLE=Maia Hirasawa - Boom!
DYEAR=2011
DGENRE=Pop
TTITLE0=Boom!
TTITLE1=Here I am
TTITLE2=It Doesn't Stop (Cornelius Remix)
TTITLE3=Hush Now (Acoustic Ver.)
TTITLE4=Because Of You
TTITLE5=CD_EXTRA
EXTD=
EXTT0=
EXTT1=
EXTT2=
EXTT3=
EXTT4=
EXTT5=
PLAYORDER=
